<?xml version="1.0" encoding="UTF-8" standalone="no"?>
<svg
   xmlns:rdf="http://www.w3.org/1999/02/22-rdf-syntax-ns#"
   xmlns:svg="http://www.w3.org/2000/svg"
   xmlns="http://www.w3.org/2000/svg"
   version="1.1"
   width="16"
   height="16"
   id="svg3963">
  <g
     id="layer1"
     style="opacity:0.4">
    <path
       d="M 8,0.5 6,6 0.5,6 l 4.25,3.5 -2,5.75 5.25,-2.5 5.25,2.5 -2,-5.75 L 15.5,6 10,6 8,0.5 z M 8,3.4375 9.0625,6.34375 A 0.98599047,0.98599047 0 0 0 10,7 l 2.75,0 -2.125,1.75 A 0.98599047,0.98599047 0 0 0 10.3125,9.8125 L 11.53125,13.34375 8.4375,11.875 a 0.98599047,0.98599047 0 0 0 -0.875,0 L 4.46875,13.34375 5.6875,9.8125 A 0.98599047,0.98599047 0 0 0 5.375,8.75 L 3.25,7 6,7 A 0.98599047,0.98599047 0 0 0 6.9375,6.34375 L 8,3.4375 z"
       inkscape:connector-curvature="0"
       id="path2997"
       style="color:#bebebe;fill:#bebebe;fill-opacity:1;fill-rule:nonzero;stroke:none;stroke-width:1;marker:none;visibility:visible;display:inline;overflow:visible;enable-background:accumulate" />
  </g>
</svg>
